<svg xmlns="http://www.w3.org/2000/svg" width="422" height="91" viewBox="0 0 422 91" fill="none"><path d="M3.96519 18.1248C4.03927 19.1974 4.53706 20.1989 5.35189 20.9011C6.15783 21.5678 7.18007 21.9204 8.22602 21.8908C9.09715 21.9234 9.95939 21.713 10.7209 21.2834C11.3935 20.8745 11.9891 20.3559 12.4868 19.7485L15.3284 21.8967C14.5135 22.9575 13.4469 23.796 12.2231 24.3412C11.0853 24.8242 9.85864 25.0731 8.62306 25.0671C7.47341 25.0731 6.33265 24.8716 5.25411 24.4716C4.23779 24.0982 3.30444 23.5264 2.51332 22.7856C1.73108 22.0419 1.10884 21.15 0.679207 20.1604C0.216976 19.0818 -0.0141374 17.9174 0.000677693 16.7411C-0.0141374 15.5677 0.214013 14.4032 0.679207 13.3217C1.10588 12.3291 1.72811 11.4343 2.51035 10.6876C3.30148 9.94686 4.23483 9.375 5.25114 9.00165C6.32968 8.60165 7.47044 8.40016 8.6201 8.40609C9.65715 8.39423 10.6853 8.5898 11.6424 8.98388C12.5372 9.35722 13.3372 9.92612 13.9832 10.6521C14.6647 11.4373 15.1832 12.3499 15.5032 13.3425C15.8854 14.5306 16.0691 15.7751 16.0484 17.0255V18.1189H3.96519V18.1248ZM12.0898 15.1529C12.1224 14.1218 11.7283 13.1232 10.9994 12.3943C10.1905 11.6832 9.13566 11.3217 8.06009 11.3869C7.02007 11.3306 6.00079 11.701 5.23633 12.4091C4.51336 13.1528 4.06594 14.1188 3.96519 15.1499L12.0898 15.1529ZM34.668 29.7043L30.7035 33.2362V22.6493H30.6057C30.3805 22.9427 30.1257 23.2153 29.8472 23.4582C29.5035 23.7575 29.1272 24.0182 28.7242 24.2345C28.2442 24.4923 27.7316 24.6908 27.2042 24.8301C26.5553 24.9931 25.8915 25.0701 25.2219 25.0612C24.1523 25.0731 23.0944 24.8538 22.1167 24.4153C21.1922 24.0034 20.3655 23.4019 19.687 22.6493C18.9996 21.876 18.4692 20.9782 18.1166 20.0063C17.7373 18.9574 17.5447 17.8522 17.5566 16.7351C17.5477 15.624 17.7284 14.5188 18.0869 13.464C18.4188 12.4862 18.9462 11.5884 19.6396 10.821C20.3299 10.0683 21.1655 9.46685 22.1018 9.05499C23.1389 8.61053 24.2589 8.38831 25.3878 8.40905C26.4693 8.40016 27.539 8.62535 28.5257 9.06981C29.4975 9.51426 30.3064 10.255 30.8368 11.1824H30.902V8.80609H34.668V29.7043ZM21.527 16.7381C21.527 17.3455 21.6307 17.95 21.8411 18.5218C22.0455 19.0848 22.3596 19.6033 22.7656 20.0419C24.5345 21.9293 27.4975 22.0271 29.3849 20.2582C29.459 20.1871 29.5301 20.1159 29.6012 20.0419C30.0072 19.6033 30.3213 19.0848 30.5257 18.5218C30.9435 17.3692 30.9435 16.107 30.5257 14.9544C30.3213 14.3914 30.0072 13.8729 29.6012 13.4343C27.8323 11.5469 24.8693 11.4491 22.9819 13.218C22.9078 13.2891 22.8367 13.3603 22.7656 13.4343C22.3596 13.8729 22.0455 14.3914 21.8411 14.9544C21.6307 15.5262 21.527 16.1307 21.527 16.7381ZM50.9913 24.6642H47.2223V22.1219H47.1571C46.7631 22.9397 46.1734 23.6479 45.4386 24.1871C44.5171 24.8153 43.4148 25.1234 42.3007 25.0612C41.3792 25.0879 40.4607 24.9131 39.6103 24.5486C38.9081 24.2345 38.2918 23.7605 37.8118 23.1619C37.3466 22.5723 37.0088 21.8938 36.8221 21.1678C36.6206 20.4034 36.5229 19.6152 36.5258 18.827V8.81498H40.4903V16.8418C40.4903 17.2833 40.5111 17.7722 40.5555 18.3115C40.594 18.833 40.7126 19.3456 40.9022 19.8315C41.0829 20.2937 41.3763 20.7056 41.7615 21.0197C42.2326 21.3663 42.8133 21.5352 43.3971 21.4997C43.9719 21.5174 44.5408 21.4049 45.0652 21.1678C45.5008 20.9604 45.886 20.6552 46.1882 20.2759C46.4875 19.8937 46.7097 19.4582 46.8342 18.987C46.9675 18.4922 47.0327 17.9796 47.0297 17.467V8.81498H50.9942V24.6642H50.9913ZM52.9409 8.81203H56.9055V24.6671H52.938L52.9409 8.81203ZM71.7591 22.2878H71.6939C71.1635 23.2182 70.3546 23.956 69.3827 24.4005C68.396 24.8449 67.3264 25.0701 66.2449 25.0612C65.116 25.082 63.996 24.8627 62.9589 24.4153C62.0256 24.0034 61.187 23.4019 60.4966 22.6493C59.8033 21.8849 59.2759 20.9841 58.944 20.0063C58.5855 18.9544 58.4077 17.8492 58.4166 16.7351C58.4077 15.621 58.5944 14.5129 58.9736 13.464C59.3233 12.4921 59.8566 11.5943 60.5441 10.821C61.2196 10.0683 62.0493 9.46685 62.9737 9.05499C63.9515 8.61942 65.0093 8.40016 66.079 8.40905C66.7457 8.40016 67.4123 8.4772 68.0612 8.64017C68.5886 8.77647 69.1012 8.97499 69.5813 9.23574C69.9842 9.45204 70.3605 9.71278 70.7042 10.012C70.9828 10.255 71.2376 10.5276 71.4628 10.821H71.5606V3.53192L75.5251 0V24.6612H71.7591V22.2878ZM62.3811 16.7351C62.3811 17.3426 62.4848 17.947 62.6952 18.5189C62.8996 19.0818 63.2137 19.6004 63.6197 20.0389C65.3886 21.9263 68.3516 22.0241 70.2391 20.2552C70.3131 20.1841 70.3842 20.113 70.4553 20.0389C70.8613 19.6004 71.1754 19.0818 71.3798 18.5189C71.7976 17.3663 71.7976 16.104 71.3798 14.9514C71.1754 14.3884 70.8583 13.8729 70.4494 13.4343C68.6805 11.5469 65.7175 11.4491 63.83 13.218C63.756 13.2891 63.6848 13.3603 63.6137 13.4343C63.2078 13.8729 62.8937 14.3914 62.6893 14.9544C62.4819 15.5262 62.3752 16.1277 62.3782 16.7381L62.3811 16.7351ZM91.8246 24.6642H88.0557V22.1249H87.9905C87.5964 22.9427 87.0068 23.6508 86.2719 24.1901C85.3504 24.8183 84.2482 25.1264 83.1341 25.0642C82.2126 25.0908 81.2941 24.916 80.4437 24.5516C79.7414 24.2375 79.1251 23.7634 78.6451 23.1649C78.1799 22.5752 77.8421 21.8967 77.6555 21.1708C77.454 20.4063 77.3562 19.6182 77.3592 18.83V8.81795H81.3237V16.8448C81.3237 17.2863 81.3444 17.7752 81.3889 18.3144C81.4274 18.8359 81.5459 19.3485 81.7356 19.8345C81.9163 20.2967 82.2096 20.7056 82.5919 21.0226C83.063 21.3693 83.6438 21.5382 84.2275 21.5026C84.8023 21.5204 85.3712 21.4078 85.8956 21.1708C86.3312 20.9634 86.7164 20.6582 87.0186 20.2789C87.3179 19.8967 87.5401 19.4611 87.6646 18.99C87.7979 18.4952 87.8631 17.9826 87.8631 17.47V8.81795H91.8276L91.8246 24.6642ZM104.749 13.5647C104.326 13.1114 103.834 12.7202 103.297 12.4091C102.826 12.1306 102.29 11.9825 101.745 11.9765C100.45 11.9499 99.2055 12.4773 98.3255 13.4284C97.9196 13.8669 97.6055 14.3855 97.401 14.9484C96.9833 16.1011 96.9833 17.3633 97.401 18.5159C97.6055 19.0789 97.9196 19.5974 98.3255 20.0359C99.2055 20.9871 100.45 21.5145 101.745 21.4878C102.337 21.4937 102.927 21.3634 103.463 21.1086C103.997 20.8508 104.459 20.4715 104.817 20.0004L107.46 22.8419C107.055 23.2449 106.592 23.5916 106.089 23.8642C105.588 24.1427 105.063 24.3768 104.518 24.5575C104.023 24.7264 103.514 24.8538 102.998 24.9368C102.583 25.0079 102.163 25.0464 101.742 25.0523C100.592 25.0583 99.4515 24.8568 98.3729 24.4568C97.3566 24.0834 96.4233 23.5116 95.6321 22.7708C94.8499 22.0271 94.2277 21.1352 93.798 20.1456C93.3358 19.067 93.1047 17.9026 93.1195 16.7262C93.1047 15.5529 93.3328 14.3884 93.798 13.3069C94.2247 12.3173 94.8499 11.4224 95.6321 10.6817C96.4233 9.94094 97.3566 9.36907 98.3729 8.99573C99.4515 8.59572 100.592 8.39424 101.742 8.40016C102.788 8.40609 103.822 8.60165 104.797 8.97795C105.825 9.36907 106.746 9.99427 107.487 10.8121L104.749 13.5647ZM108.403 12.178V8.81203H111.674V3.45192H115.638V8.81203H119.997V12.181H115.638V19.1204C115.606 19.7782 115.76 20.43 116.083 21.0019C116.513 21.5234 117.179 21.7871 117.849 21.6952C118.237 21.6923 118.625 21.6538 119.004 21.5797C119.36 21.5263 119.698 21.3989 119.994 21.2004V24.5368C119.508 24.7531 118.99 24.8923 118.459 24.9486C117.929 25.0197 117.393 25.0583 116.856 25.0642C115.979 25.0908 115.102 24.9723 114.264 24.7175C113.644 24.522 113.096 24.1545 112.678 23.6597C112.272 23.1441 112.003 22.5367 111.884 21.8938C111.733 21.0878 111.659 20.27 111.668 19.4493V12.181L108.403 12.178Z" fill="white"></path><path d="M54.9145 1.2207C56.2034 1.2207 57.2493 2.26665 57.2493 3.55556C57.2493 4.84448 56.2034 5.89042 54.9145 5.89042C53.6255 5.89042 52.5796 4.84448 52.5796 3.55556C52.5796 2.26369 53.6255 1.2207 54.9145 1.2207Z" fill="#0099D8"></path><path d="M0.448237 59.313C0.448237 58.5396 0.418606 57.6003 0.359346 56.4981C0.300085 55.3959 0.255641 54.2788 0.226011 53.1469C0.19638 52.0121 0.151936 50.9543 0.0926757 49.9735C0.0334153 48.9928 0.00378418 48.2342 0.00378418 47.695H5.36685C5.42611 49.2446 5.47055 50.7321 5.50018 52.1632C5.4824 53.0906 5.55648 54.021 5.72537 54.9336H5.99204C7.19799 52.5217 9.05581 50.492 11.3551 49.0787C13.9655 47.4105 17.0145 46.5542 20.1138 46.6224C22.7627 46.5957 25.3672 47.3246 27.6191 48.7231C30.034 50.3291 31.7822 52.7588 32.5348 55.5588C33.6459 52.6876 35.7141 50.2906 38.3897 48.7676C40.8875 47.3631 43.7024 46.6253 46.5676 46.6224C49.2699 46.5186 51.9633 47.0372 54.4315 48.1424C56.3308 49.0491 57.9753 50.415 59.2138 52.1187C60.4049 53.8225 61.2257 55.7544 61.6287 57.7929C62.079 59.9678 62.3042 62.1841 62.2983 64.4064V88.9787H56.9293V64.676C56.9323 63.0434 56.7841 61.4137 56.4819 59.8108C56.2152 58.3144 55.6848 56.8774 54.9174 55.5647C54.1648 54.2995 53.0833 53.2625 51.7885 52.5602C50.1677 51.7513 48.3692 51.3691 46.5587 51.4432C44.4165 51.3573 42.292 51.8373 40.3927 52.8299C38.8608 53.6832 37.5571 54.8921 36.5941 56.3588C35.6726 57.7811 35.0089 59.3544 34.6296 61.0048C34.2563 62.5575 34.0607 64.1457 34.0489 65.7427V88.9757H28.6888V64.1397C28.834 60.9367 28.111 57.7574 26.588 54.9336C25.2546 52.6462 22.7539 51.298 20.1079 51.4491C18.1967 51.4373 16.3034 51.7869 14.5226 52.4773C12.7803 53.1499 11.2218 54.2195 9.96546 55.6033C8.60543 57.1381 7.57134 58.9307 6.9254 60.8774C6.13428 63.2834 5.75797 65.8079 5.80834 68.3413V88.9876H0.448237V59.313ZM104.921 71.6451C104.921 73.6718 104.936 75.491 104.966 77.097C104.995 78.703 105.04 80.1934 105.099 81.5652C105.158 82.9371 105.232 84.2171 105.324 85.4083C105.413 86.5994 105.55 87.7905 105.727 88.9846H100.723C100.349 86.7713 100.172 84.5282 100.186 82.2823H100.006C98.6694 84.7475 96.6753 86.789 94.2397 88.1817C91.5374 89.5269 88.5418 90.1699 85.5254 90.0573C83.7476 90.0573 81.9757 89.8321 80.2512 89.3876C78.5831 88.9669 77.0067 88.2409 75.6052 87.2424C72.5622 85.0883 70.814 81.5415 70.9592 77.8141C70.8111 75.0999 71.6703 72.4273 73.3741 70.3087C74.986 68.4598 77.0245 67.0316 79.3149 66.1516C81.7239 65.2153 84.2513 64.6108 86.8262 64.3619C89.4781 64.0923 91.8159 63.959 93.8426 63.959H100.098V61.4582C100.098 57.8848 98.9953 55.3218 96.7908 53.7721C94.3315 52.1484 91.4248 51.3365 88.4796 51.4491C83.8513 51.3987 79.3653 53.0521 75.8778 56.0951L72.7459 52.4299C74.8319 50.4535 77.3356 48.972 80.0735 48.095C82.7757 47.1498 85.6113 46.652 88.4736 46.6194C93.4782 46.6194 97.4694 47.7957 100.45 50.1484C103.431 52.501 104.918 56.2996 104.918 61.5441L104.921 71.6451ZM94.1952 68.2524C91.9967 68.2465 89.804 68.3976 87.6262 68.6998C85.6617 68.9576 83.7417 69.4672 81.9076 70.2198C80.3461 70.8391 78.9505 71.8199 77.8423 73.0791C76.0941 75.3251 75.8334 78.3889 77.1727 80.8986C77.7149 81.8556 78.4616 82.6793 79.3623 83.3134C80.2749 83.9475 81.2853 84.4305 82.355 84.7416C83.4424 85.0646 84.5713 85.2305 85.7062 85.2275C88.121 85.3105 90.524 84.8838 92.7611 83.9771C94.4708 83.2512 95.9908 82.1341 97.1938 80.7208C98.2871 79.3933 99.0635 77.8348 99.4664 76.1637C99.8813 74.4836 100.092 72.7562 100.092 71.0258V68.2583H94.1952V68.2524ZM116.359 59.3159C116.359 58.5426 116.329 57.6033 116.27 56.5011C116.21 55.3988 116.166 54.2818 116.136 53.1499C116.107 52.0151 116.062 50.9573 116.003 49.9765C115.944 48.9957 115.914 48.2372 115.911 47.695H121.28C121.339 49.2446 121.384 50.7321 121.414 52.1632C121.396 53.0906 121.47 54.021 121.639 54.9336C122.937 52.5751 124.735 50.5306 126.913 48.9454C129.218 47.3483 131.974 46.5335 134.777 46.6224C135.301 46.6224 135.826 46.6668 136.341 46.7557C136.848 46.8446 137.369 46.9483 137.906 47.0698L137.28 52.3439C136.62 52.1158 135.923 51.9943 135.224 51.9854C133.159 51.935 131.103 52.3173 129.191 53.1025C127.571 53.7899 126.134 54.8447 124.99 56.187C123.867 57.5381 123.031 59.1055 122.534 60.7885C121.985 62.6286 121.716 64.5427 121.731 66.4627V88.9817H116.367L116.359 59.3159ZM142.365 21.4219H147.728V66.4627L168.105 47.7838H175.969L154.7 66.6375L178.472 88.9787H170.339L147.728 67.1768V88.9817H142.365V21.4219ZM220.743 81.2097C218.879 84.1757 216.192 86.5342 213.012 88.0009C209.815 89.3965 206.357 90.0987 202.87 90.0573C199.931 90.0987 197.015 89.5535 194.289 88.4483C191.794 87.4231 189.542 85.8853 187.676 83.9356C185.803 81.9564 184.357 79.6156 183.43 77.0555C182.419 74.2318 181.918 71.2539 181.957 68.2554C181.927 65.3249 182.443 62.4152 183.477 59.6744C184.44 57.1351 185.898 54.8092 187.767 52.8388C189.616 50.9009 191.836 49.3513 194.292 48.2816C196.917 47.1557 199.747 46.5927 202.603 46.6283C205.474 46.569 208.325 47.1349 210.959 48.2816C213.267 49.3068 215.338 50.7972 217.042 52.661C218.675 54.4684 219.934 56.5781 220.752 58.8715C221.575 61.1323 221.999 63.5205 222.002 65.9264V69.6806H187.317C187.367 71.1473 187.593 72.6021 187.987 74.0155C188.479 75.8674 189.311 77.6096 190.443 79.1533C191.72 80.8986 193.35 82.3593 195.225 83.4438C197.593 84.7268 200.265 85.3431 202.956 85.2305C205.726 85.2246 208.455 84.549 210.912 83.266C213.344 82.0719 215.392 80.2141 216.811 77.9029L220.743 81.2097ZM216.63 64.8538C216.642 63.0642 216.263 61.2952 215.513 59.6715C214.778 58.0774 213.744 56.6344 212.473 55.4255C211.152 54.1781 209.605 53.1914 207.916 52.5217C206.141 51.8047 204.245 51.4402 202.331 51.4491C199.782 51.3543 197.261 51.9736 195.048 53.2358C193.261 54.2936 191.696 55.6892 190.446 57.3485C189.409 58.7174 188.594 60.2404 188.031 61.8612C187.664 62.8241 187.424 63.8316 187.317 64.8538H216.63ZM253.093 52.5217H241.294V79.423C241.197 80.9993 241.745 82.549 242.814 83.7134C243.949 84.7712 245.466 85.3223 247.016 85.2335C248.056 85.2305 249.093 85.0942 250.1 84.8305C251.126 84.5697 252.124 84.226 253.093 83.8023L253.54 88.6291C252.4 89.0232 251.235 89.3521 250.056 89.6128C248.915 89.8884 247.745 90.0395 246.571 90.0602C244.894 90.1017 243.223 89.8113 241.656 89.2098C240.391 88.718 239.259 87.9387 238.349 86.9313C237.505 85.9594 236.879 84.8157 236.518 83.5801C236.121 82.2319 235.925 80.8304 235.937 79.4259V52.5306H227.001V47.7039H235.937V35.8162H241.3V47.7039H253.099V52.5217H253.093Z" fill="#E0B0FF"></path><path d="M297.69 81.746H297.512C296.694 83.1564 295.636 84.4127 294.383 85.4557C293.144 86.4898 291.778 87.3609 290.318 88.0483C288.848 88.7357 287.304 89.2454 285.716 89.5684C284.158 89.8884 282.569 90.0513 280.978 90.0543C277.983 90.0839 275.011 89.5387 272.22 88.4454C269.636 87.438 267.292 85.9001 265.339 83.9327C263.407 81.9593 261.89 79.6185 260.871 77.0526C258.726 71.4406 258.726 65.236 260.871 59.627C261.89 57.0581 263.407 54.7203 265.339 52.7469C267.292 50.7795 269.639 49.2417 272.22 48.2342C275.008 47.1409 277.983 46.5957 280.978 46.6253C282.569 46.6283 284.158 46.7913 285.716 47.1113C287.304 47.4313 288.851 47.9439 290.318 48.6313C291.778 49.3187 293.144 50.1898 294.383 51.2239C295.633 52.2669 296.694 53.5232 297.512 54.9336H297.69V21.4219H303.053V88.9846H297.69V81.746ZM298.226 68.3383C298.241 66.0805 297.784 63.8434 296.887 61.7693C296.024 59.7604 294.78 57.9411 293.221 56.4062C291.645 54.8684 289.796 53.6417 287.769 52.7884C285.621 51.8817 283.31 51.4284 280.978 51.4491C278.646 51.4135 276.332 51.8699 274.187 52.7884C272.231 53.6329 270.468 54.8625 269.005 56.4062C267.559 57.95 266.448 59.7752 265.742 61.7693C264.252 66.0212 264.252 70.6554 265.742 74.9073C266.451 76.9015 267.559 78.7267 269.005 80.2704C270.471 81.8141 272.234 83.0468 274.187 83.8882C276.332 84.8038 278.646 85.2601 280.978 85.2275C283.31 85.2512 285.621 84.7949 287.769 83.8882C289.796 83.0319 291.645 81.8052 293.221 80.2704C294.78 78.7385 296.024 76.9163 296.887 74.9073C297.784 72.8362 298.238 70.5991 298.226 68.3383ZM347.199 71.6451C347.199 73.6718 347.214 75.491 347.243 77.097C347.273 78.703 347.317 80.1934 347.376 81.5652C347.436 82.9371 347.51 84.2171 347.602 85.4083C347.691 86.5994 347.827 87.7905 348.005 88.9846H343C342.627 86.7713 342.449 84.5282 342.464 82.2823H342.286C340.95 84.7475 338.956 86.789 336.52 88.1817C333.818 89.5269 330.822 90.1699 327.806 90.0573C326.028 90.0573 324.256 89.8321 322.532 89.3876C320.863 88.9669 319.287 88.2409 317.886 87.2424C314.843 85.0883 313.094 81.5415 313.24 77.8141C313.091 75.0999 313.951 72.4273 315.654 70.3087C317.266 68.4598 319.308 67.0316 321.598 66.1546C324.007 65.2183 326.532 64.6168 329.104 64.3679C331.755 64.0982 334.093 63.9649 336.12 63.9649H342.375V61.4612C342.375 57.8878 341.273 55.3247 339.068 53.7751C336.609 52.1513 333.702 51.3395 330.757 51.4521C326.129 51.4017 321.643 53.0551 318.155 56.0981L315.029 52.4328C317.115 50.4565 319.619 48.975 322.357 48.0979C325.059 47.1527 327.895 46.6549 330.757 46.6224C335.761 46.6224 339.753 47.7987 342.733 50.1513C345.714 52.5039 347.202 56.3025 347.202 61.5471L347.199 71.6451ZM336.476 68.2524C334.277 68.2465 332.084 68.3976 329.907 68.6998C327.942 68.9576 326.022 69.4672 324.188 70.2198C322.626 70.8391 321.231 71.8199 320.123 73.0791C318.374 75.3251 318.114 78.3889 319.453 80.8986C319.995 81.8556 320.742 82.6793 321.643 83.3134C322.555 83.9475 323.569 84.4305 324.635 84.7416C325.723 85.0646 326.852 85.2305 327.986 85.2275C330.401 85.3105 332.804 84.8838 335.041 83.9771C336.748 83.2482 338.262 82.1312 339.465 80.7149C340.562 79.3874 341.341 77.8289 341.744 76.1577C342.159 74.4777 342.369 72.7503 342.369 71.0199V68.2554H336.476V68.2524ZM380.622 52.5247H368.823V79.42C368.725 80.9963 369.273 82.546 370.343 83.7105C371.478 84.7683 372.995 85.3194 374.544 85.2305C375.584 85.2275 376.621 85.0912 377.629 84.8275C378.654 84.5668 379.653 84.2231 380.622 83.7993L381.069 88.6261C379.928 89.0202 378.764 89.3491 377.584 89.6098C376.444 89.8854 375.273 90.0365 374.1 90.0573C372.423 90.0987 370.752 89.8083 369.184 89.2069C367.919 88.715 366.787 87.9357 365.878 86.9283C365.033 85.9564 364.408 84.8127 364.046 83.5771C363.649 82.2289 363.454 80.8274 363.466 79.423V52.5276H354.529V47.7009H363.466V35.8133H368.829V47.7009H380.627V52.5247H380.622ZM421.194 71.651C421.194 73.6777 421.209 75.497 421.239 77.1029C421.268 78.7089 421.313 80.1993 421.372 81.5712C421.431 82.943 421.505 84.2231 421.597 85.4142C421.686 86.6053 421.819 87.7965 422 88.9906H416.996C416.622 86.7772 416.444 84.5342 416.459 82.2882H416.281C414.945 84.7534 412.951 86.795 410.515 88.1876C407.813 89.5328 404.818 90.1758 401.801 90.0632C400.023 90.0632 398.252 89.838 396.527 89.3935C394.859 88.9728 393.283 88.2468 391.881 87.2483C388.838 85.0942 387.09 81.5475 387.235 77.82C387.087 75.1059 387.946 72.4332 389.65 70.3147C391.262 68.4657 393.303 67.0376 395.594 66.1605C398.003 65.2242 400.527 64.6227 403.099 64.3738C405.751 64.1042 408.089 63.9708 410.115 63.9708H416.37V61.4641C416.37 57.8907 415.268 55.3277 413.064 53.778C410.604 52.1543 407.698 51.3424 404.752 51.455C400.124 51.4047 395.638 53.058 392.151 56.101L389.025 52.4358C391.111 50.4565 393.614 48.975 396.352 48.1009C399.055 47.1557 401.89 46.6579 404.752 46.6253C409.757 46.6253 413.748 47.8016 416.729 50.1543C419.71 52.5069 421.197 56.3055 421.197 61.55L421.194 71.651ZM410.471 68.2524C408.272 68.2465 406.08 68.3976 403.902 68.6998C401.938 68.9576 400.017 69.4672 398.183 70.2198C396.622 70.8391 395.226 71.8199 394.118 73.0791C393.084 74.3325 392.542 75.9236 392.598 77.5474C392.577 78.7207 392.874 79.8763 393.448 80.8986C393.991 81.8556 394.737 82.6793 395.638 83.3134C396.551 83.9475 397.564 84.4305 398.631 84.7416C399.718 85.0646 400.847 85.2305 401.982 85.2275C404.397 85.3105 406.8 84.8838 409.037 83.9771C410.744 83.2482 412.258 82.1312 413.461 80.7149C414.557 79.3874 415.336 77.8289 415.739 76.1577C416.154 74.4777 416.364 72.7503 416.364 71.0199V68.2554H410.471V68.2524Z" fill="white"></path></svg>