<svg xmlns="http://www.w3.org/2000/svg" width="230" height="65" viewBox="0 0 230 65" fill="none"><path d="M7.59786 35.3328C7.73824 37.3928 8.69598 39.31 10.2583 40.6584C11.8047 41.9366 13.7609 42.6119 15.767 42.5598C17.4379 42.621 19.0908 42.2176 20.5466 41.3949C21.8349 40.6131 22.9806 39.616 23.9338 38.4489L29.3791 42.5666C27.8146 44.5994 25.77 46.2129 23.4289 47.2554C21.2462 48.1823 18.8983 48.6559 16.5277 48.6491C14.3247 48.6627 12.1352 48.2775 10.0703 47.5092C8.12088 46.7953 6.33446 45.6962 4.81747 44.2776C3.31859 42.8521 2.12311 41.1389 1.30348 39.2398C0.413664 37.1707 -0.0278481 34.9362 0.00158609 32.6813C-0.0301122 30.4287 0.413664 28.1942 1.30122 26.1229C2.11858 24.2193 3.31406 22.4992 4.81294 21.0715C6.32993 19.6528 8.11635 18.5537 10.0658 17.8398C12.133 17.0716 14.3202 16.6863 16.5232 16.6999C18.5089 16.675 20.4787 17.0535 22.3149 17.8081C24.0312 18.5242 25.5663 19.6188 26.8048 21.008C28.1135 22.5128 29.1052 24.2691 29.7188 26.1659C30.4501 28.448 30.8033 30.8344 30.7625 33.232V35.3328H7.59786ZM23.1708 29.631C23.2342 27.6526 22.478 25.7376 21.081 24.3394C19.53 22.9774 17.5058 22.2816 15.4477 22.404C13.453 22.2975 11.499 23.0068 10.0341 24.3666C8.64843 25.792 7.79031 27.6481 7.5956 29.6265H23.1685L23.1708 29.631ZM66.4526 57.5486L58.8563 64.3268V44.0147H58.6661C58.2337 44.579 57.7446 45.0979 57.2102 45.5671C56.5514 46.1427 55.8291 46.6435 55.057 47.056C54.1355 47.55 53.1574 47.933 52.143 48.1959C50.9023 48.5086 49.6253 48.6582 48.3438 48.64C46.2947 48.6604 44.2637 48.2389 42.3935 47.4027C40.623 46.6118 39.0358 45.456 37.7384 44.0124C36.4229 42.5303 35.4018 40.808 34.7316 38.9429C34.0026 36.9328 33.638 34.807 33.6561 32.67C33.6403 30.5375 33.9844 28.4163 34.6727 26.3971C35.309 24.5207 36.3211 22.7961 37.6479 21.3276C38.9679 19.8817 40.5754 18.7282 42.3641 17.9373C44.3521 17.0829 46.5007 16.6614 48.663 16.6999C50.7347 16.6841 52.7861 17.1169 54.6766 17.969C56.5423 18.8211 58.0933 20.2398 59.1076 22.0256H59.2344V17.4637H66.4526V57.5486ZM41.2615 32.67C41.2592 33.8371 41.463 34.9951 41.8637 36.092C42.2532 37.173 42.8554 38.1633 43.6366 39.0086C47.026 42.63 52.7091 42.8159 56.3272 39.4233C56.4699 39.2896 56.608 39.1514 56.7416 39.0086C57.5204 38.1656 58.125 37.173 58.5144 36.092C59.3159 33.8824 59.3159 31.4598 58.5144 29.248C58.125 28.167 57.5227 27.1767 56.7416 26.3314C53.3521 22.71 47.6691 22.5241 44.0509 25.9167C43.9083 26.0504 43.7702 26.1886 43.6366 26.3314C42.8577 27.1744 42.2532 28.167 41.8637 29.248C41.463 30.3449 41.2592 31.5029 41.2615 32.67ZM97.7388 47.8786H90.5161V42.9994H90.3893C89.6308 44.5699 88.501 45.9296 87.0972 46.9608C85.3312 48.1664 83.2187 48.7556 81.0836 48.64C79.3153 48.6899 77.556 48.3545 75.9304 47.6588C74.5854 47.0582 73.4035 46.1449 72.4798 44.996C71.5877 43.8651 70.9424 42.562 70.5801 41.1683C70.1975 39.7021 70.005 38.1905 70.0096 36.6744V17.4637H77.6058V32.8626C77.6058 33.7079 77.6489 34.6484 77.7326 35.6818C77.8096 36.6812 78.0338 37.6647 78.3983 38.5984C78.7425 39.4868 79.3108 40.2732 80.0443 40.8805C80.95 41.5445 82.0595 41.8708 83.1779 41.7983C84.2783 41.8323 85.3719 41.6148 86.375 41.1638C87.2127 40.7627 87.9485 40.178 88.5282 39.4528C89.1055 38.7231 89.5244 37.8823 89.7644 36.9826C90.0203 36.0331 90.1471 35.0518 90.1425 34.066V17.4637H97.7388V47.8786ZM101.477 17.4614H109.073V47.8786H101.47L101.477 17.4614ZM137.545 43.3167H137.418C136.404 45.1002 134.853 46.5189 132.987 47.3732C131.097 48.2253 129.045 48.6582 126.974 48.6423C124.809 48.6831 122.663 48.2616 120.675 47.405C118.884 46.614 117.279 45.4605 115.959 44.0147C114.632 42.5462 113.617 40.8216 112.983 38.9452C112.295 36.926 111.953 34.8048 111.971 32.6723C111.951 30.5329 112.313 28.4095 113.04 26.3994C113.712 24.5343 114.731 22.8142 116.047 21.3298C117.344 19.8862 118.931 18.7305 120.702 17.9396C122.574 17.1033 124.603 16.6818 126.652 16.7022C127.931 16.6841 129.211 16.8336 130.451 17.1464C131.464 17.4093 132.442 17.7923 133.365 18.2863C134.138 18.701 134.86 19.1996 135.519 19.7752C136.053 20.2443 136.542 20.7633 136.975 21.3276H137.165V7.34272L144.759 0.564453V47.8786H137.541V43.3144L137.545 43.3167ZM119.565 32.6655C119.563 33.8326 119.767 34.9906 120.168 36.0875C120.557 37.1684 121.159 38.1588 121.94 39.0041C125.33 42.6255 131.013 42.8113 134.631 39.4188C134.774 39.2851 134.912 39.1469 135.045 39.0041C135.824 38.161 136.429 37.1684 136.818 36.0875C137.62 33.8779 137.62 31.4553 136.818 29.2435C136.424 28.1647 135.818 27.1744 135.034 26.3336C131.645 22.7122 125.962 22.5264 122.343 25.9189C122.201 26.0526 122.063 26.1909 121.929 26.3336C121.15 27.1767 120.546 28.1693 120.156 29.2503C119.758 30.3471 119.556 31.5029 119.559 32.67L119.565 32.6655ZM176.006 47.8741H168.784V42.9994H168.657C167.898 44.5699 166.769 45.9296 165.365 46.9608C163.599 48.1664 161.486 48.7556 159.351 48.64C157.583 48.6899 155.824 48.3545 154.198 47.6588C152.853 47.0582 151.671 46.1449 150.747 44.996C149.855 43.8651 149.21 42.562 148.848 41.1683C148.465 39.7021 148.273 38.1905 148.277 36.6744V17.4637H155.874V32.8626C155.874 33.7079 155.917 34.6484 156 35.6818C156.077 36.6812 156.301 37.6647 156.666 38.5984C157.01 39.4868 157.576 40.2709 158.31 40.876C159.215 41.54 160.325 41.8663 161.443 41.7938C162.544 41.8278 163.637 41.6102 164.64 41.1593C165.478 40.7581 166.214 40.1735 166.794 39.4483C167.371 38.7185 167.79 37.8778 168.03 36.9781C168.286 36.0285 168.412 35.0473 168.408 34.0615V17.4637H176.004V47.8741H176.006ZM200.781 26.5829C199.966 25.7104 199.028 24.9626 197.996 24.3643C197.095 23.8317 196.067 23.5439 195.021 23.5326C192.539 23.4805 190.153 24.4957 188.468 26.32C187.69 27.1631 187.085 28.1557 186.696 29.2367C185.894 31.4462 185.894 33.8688 186.696 36.0807C187.085 37.1616 187.687 38.152 188.468 38.9973C190.153 40.8216 192.539 41.8369 195.021 41.7847C196.16 41.7938 197.285 41.5445 198.313 41.055C199.334 40.5632 200.224 39.8358 200.908 38.9316L205.973 44.3818C205.194 45.1569 204.309 45.8186 203.346 46.3444C202.386 46.8792 201.379 47.3256 200.339 47.6746C199.391 47.9964 198.415 48.2412 197.425 48.4044C196.631 48.5403 195.827 48.6151 195.019 48.6264C192.816 48.64 190.626 48.2548 188.561 47.4865C186.612 46.7727 184.825 45.6736 183.308 44.2549C181.81 42.8295 180.614 41.1162 179.794 39.2171C178.907 37.1458 178.465 34.9113 178.495 32.6587C178.463 30.406 178.907 28.1715 179.794 26.1002C180.614 24.2011 181.81 22.4879 183.308 21.0624C184.825 19.6438 186.612 18.5446 188.561 17.8308C190.628 17.0625 192.816 16.6773 195.019 16.6909C197.022 16.7022 199.006 17.0784 200.874 17.7991C202.846 18.5469 204.612 19.7525 206.027 21.3162L200.779 26.5852L200.781 26.5829ZM207.779 23.9201V17.4637H214.047V7.18182H221.643V17.4637H230V23.9269H221.643V37.241C221.577 38.501 221.874 39.7542 222.497 40.8511C223.318 41.8527 224.6 42.3558 225.884 42.1813C226.629 42.1745 227.369 42.0997 228.1 41.9592C228.78 41.8595 229.427 41.6102 230 41.2295V47.6293C229.065 48.0463 228.073 48.3137 227.057 48.4225C226.038 48.5607 225.012 48.6333 223.986 48.6446C222.304 48.6922 220.626 48.4678 219.017 47.9783C217.832 47.6044 216.777 46.8996 215.978 45.95C215.204 44.962 214.681 43.7971 214.459 42.5598C214.167 41.0142 214.029 39.4437 214.047 37.871V23.9269L207.782 23.9201H207.779Z" fill="white"></path><path d="M104.753 2.84277C107.267 2.84277 109.307 4.8826 109.307 7.39723C109.307 9.91186 107.267 11.9517 104.753 11.9517C102.238 11.9517 100.198 9.91186 100.198 7.39723C100.198 4.8826 102.238 2.84277 104.753 2.84277Z" fill="#00A9FF"></path></svg>