<svg xmlns="http://www.w3.org/2000/svg" width="277" height="158" viewBox="0 0 277 158" fill="none"><path d="M53.5544 96.8359C53.5544 100.09 53.5802 103.007 53.6275 105.591C53.6748 108.175 53.7436 110.566 53.8382 112.764C53.9285 114.963 54.0447 117.021 54.1909 118.935C54.3371 120.849 54.5478 122.763 54.823 124.672H46.9316C46.3425 121.116 46.0629 117.516 46.0844 113.912H45.8049C43.702 117.866 40.554 121.147 36.7179 123.38C32.4561 125.539 27.7342 126.573 22.9821 126.393C20.1782 126.393 17.3829 126.034 14.6692 125.316C12.0373 124.642 9.55164 123.472 7.34118 121.874C2.54182 118.414 -0.214819 112.716 0.0131077 106.734C0.0131077 101.662 1.28177 97.6461 3.81477 94.6812C6.35636 91.7118 9.57313 89.417 13.1856 88.0068C16.9829 86.5046 20.9652 85.5367 25.0206 85.1382C29.2006 84.709 32.8862 84.4944 36.0814 84.4944H45.9425V80.4827C45.9425 74.7455 44.2051 70.6288 40.7303 68.1412C36.8512 65.5353 32.2712 64.2302 27.6267 64.4098C20.3287 64.3266 13.2587 66.985 7.76263 71.8725L2.82996 65.9908C6.11985 62.8156 10.0677 60.4375 14.3811 59.0361C18.6429 57.5208 23.1154 56.7193 27.631 56.6712C35.5224 56.6712 41.814 58.5587 46.5102 62.3383C51.2063 66.1178 53.5544 72.2141 53.5501 80.6229V96.8359H53.5544ZM36.6448 91.3834C33.1829 91.3746 29.721 91.6155 26.2892 92.1016C23.1928 92.5133 20.1653 93.3367 17.2753 94.541C14.8111 95.5352 12.6136 97.1075 10.8633 99.1308C8.10668 102.735 7.69382 107.653 9.80537 111.687C10.6612 113.224 11.8395 114.547 13.2587 115.563C14.6994 116.583 16.2905 117.363 17.972 117.862C19.6879 118.383 21.464 118.65 23.2531 118.65C27.059 118.782 30.852 118.099 34.3828 116.636C37.0749 115.462 39.4616 113.671 41.3582 111.398C43.087 109.269 44.3126 106.764 44.9534 104.08C45.6071 101.382 45.9382 98.6096 45.9382 95.8286V91.3834H36.6448ZM66.9376 58.3835H75.3924V70.0069H75.6805C76.9706 67.7426 78.6393 65.728 80.6089 64.0507C82.5613 62.3908 84.7116 60.9894 87.0123 59.8901C89.326 58.7865 91.7644 57.9675 94.2673 57.4507C96.7229 56.9339 99.2258 56.6668 101.733 56.6624C106.433 56.6098 111.099 57.4858 115.469 59.2463C123.687 62.5441 130.189 69.1703 133.432 77.5396C136.812 86.5484 136.812 96.5118 133.432 105.521C130.194 113.89 123.687 120.516 115.469 123.814C111.095 125.574 106.433 126.45 101.733 126.398C99.2258 126.389 96.7229 126.126 94.2673 125.609C91.7601 125.093 89.326 124.274 87.0123 123.17C84.7073 122.066 82.5527 120.669 80.6003 119.01C78.6263 117.332 76.9577 115.318 75.6719 113.053H75.3924V151.646L66.9376 157.387V58.3835ZM74.5452 91.5279C74.5237 95.1542 75.2419 98.7454 76.6567 102.074C78.0157 105.297 79.9767 108.223 82.4323 110.684C84.9137 113.15 87.8294 115.12 91.029 116.496C94.4178 117.95 98.0603 118.681 101.737 118.646C105.414 118.699 109.065 117.967 112.446 116.496C115.525 115.142 118.303 113.163 120.616 110.684C122.896 108.205 124.646 105.275 125.76 102.074C128.108 95.2461 128.108 87.8097 125.76 80.982C124.646 77.7849 122.896 74.855 120.616 72.3762C118.307 69.8974 115.525 67.9178 112.446 66.5645C109.065 65.093 105.414 64.3572 101.737 64.4142C98.0603 64.3791 94.4178 65.1105 91.029 66.5645C87.8337 67.9397 84.918 69.9105 82.4366 72.3762C79.981 74.8375 78.02 77.7586 76.661 80.9863C75.2462 84.3148 74.5237 87.9016 74.5452 91.5279ZM206.42 112.191C203.483 116.951 199.247 120.739 194.233 123.096C189.192 125.338 183.744 126.463 178.243 126.398C173.612 126.463 169.014 125.588 164.722 123.814C160.787 122.167 157.235 119.697 154.298 116.57C151.344 113.395 149.069 109.633 147.606 105.521C146.011 100.988 145.224 96.2009 145.284 91.3878C145.237 86.6841 146.05 82.0155 147.68 77.6185C149.198 73.5367 151.494 69.8054 154.444 66.6434C157.36 63.5295 160.856 61.0419 164.727 59.3252C168.864 57.5164 173.328 56.6098 177.83 56.6712C182.359 56.5792 186.853 57.4814 191.003 59.3252C194.637 60.9719 197.901 63.3631 200.584 66.3543C203.156 69.2536 205.143 72.6433 206.433 76.3265C207.732 79.9616 208.398 83.7937 208.407 87.6608V93.687H153.726C153.803 96.0388 154.16 98.3731 154.784 100.642C155.558 103.615 156.874 106.414 158.659 108.893C160.676 111.696 163.243 114.043 166.198 115.782C169.93 117.84 174.141 118.834 178.385 118.65C182.754 118.637 187.055 117.556 190.925 115.493C194.761 113.575 197.987 110.592 200.223 106.883L206.42 112.191ZM199.939 85.9309C199.961 83.0579 199.359 80.2199 198.18 77.6097C197.024 75.0477 195.398 72.7353 193.39 70.7952C191.304 68.7937 188.865 67.2083 186.203 66.131C183.408 64.9791 180.415 64.3923 177.4 64.4098C173.384 64.2565 169.41 65.2507 165.918 67.2784C163.101 68.9777 160.637 71.22 158.663 73.8784C157.029 76.0769 155.747 78.5207 154.861 81.1221C154.285 82.6681 153.907 84.2842 153.735 85.9309H199.939ZM237.977 88.8038L214.729 58.3879H225.579L243.607 83.4958L261.497 58.3879H272.076L249.103 88.8038L277 124.681H266.012L243.327 94.6943L221.063 124.681H210.918L237.977 88.8038Z" fill="#45E180"></path><path d="M6.24308 27.4583C6.35915 29.0849 7.14583 30.5998 8.42686 31.6635C9.695 32.6735 11.3028 33.2074 12.9492 33.166C14.3205 33.2115 15.6789 32.897 16.874 32.2471C17.9315 31.6304 18.8729 30.8399 19.6553 29.921L24.126 33.1743C22.8407 34.7802 21.1641 36.055 19.2383 36.8787C17.4457 37.6113 15.5199 37.9838 13.5725 37.9797C11.7627 37.9921 9.96583 37.6858 8.26781 37.0774C6.66867 36.5145 5.1985 35.6453 3.95185 34.5236C2.7224 33.3978 1.73797 32.0443 1.06736 30.546C0.340871 28.9111 -0.0245161 27.1437 0.00127657 25.3639C-0.0245161 23.5842 0.340871 21.8209 1.06736 20.1819C1.73797 18.6794 2.7181 17.3218 3.95185 16.1919C5.1985 15.0702 6.66437 14.201 8.26781 13.6381C9.96583 13.0338 11.7627 12.7275 13.5725 12.7358C15.2017 12.7151 16.8224 13.0131 18.327 13.6132C19.737 14.1803 20.9965 15.0454 22.011 16.1422C23.0857 17.3301 23.8981 18.7167 24.4011 20.2191C25.0029 22.0237 25.291 23.907 25.2566 25.7985V27.4583H6.24308ZM19.0319 22.955C19.0835 21.3946 18.4645 19.8797 17.3167 18.7746C16.0443 17.6985 14.3807 17.148 12.6912 17.2473C11.0534 17.1645 9.44998 17.7233 8.24632 18.7994C7.10715 19.9253 6.40213 21.3905 6.24308 22.955H19.0319ZM54.5699 45.0077L48.3324 50.3636V34.3208H48.1776C47.8208 34.7678 47.421 35.1776 46.9826 35.5459C46.4409 36.0012 45.8477 36.3944 45.2158 36.7214C44.4592 37.1105 43.6553 37.4168 42.8257 37.6237C41.8069 37.8721 40.7579 37.988 39.7048 37.9755C38.0239 37.9921 36.356 37.661 34.817 36.9987C33.3641 36.3737 32.0615 35.4632 30.9954 34.3208C29.9164 33.1494 29.0782 31.7918 28.5236 30.3183C27.9261 28.729 27.6252 27.0527 27.6424 25.3639C27.6295 23.6794 27.9089 22.003 28.4764 20.4095C28.9965 18.9278 29.8305 17.566 30.9181 16.4071C32.0013 15.2647 33.3211 14.3541 34.7913 13.7291C36.4248 13.0545 38.1873 12.7192 39.9627 12.7523C41.665 12.7399 43.3501 13.0793 44.902 13.754C46.4323 14.4286 47.7048 15.5503 48.5387 16.9576H48.6419V13.3525H54.5699V45.0077ZM33.8885 25.3557C33.8885 26.2787 34.0519 27.1934 34.3829 28.0584C34.701 28.9111 35.1996 29.6934 35.8402 30.3597C38.6258 33.2198 43.2899 33.3688 46.2604 30.6867C46.3764 30.5791 46.4925 30.4715 46.6 30.3597C47.2405 29.6934 47.7349 28.9111 48.0573 28.0584C48.715 26.3118 48.715 24.3995 48.0573 22.6529C47.7392 21.8002 47.2405 21.018 46.6 20.3516C43.8144 17.4915 39.1502 17.3425 36.1798 20.0246C36.0637 20.1322 35.9476 20.2398 35.8402 20.3516C35.1996 21.018 34.7053 21.8002 34.3829 22.6529C34.0519 23.5179 33.8842 24.4327 33.8885 25.3557ZM80.2637 37.3671H74.3314V33.5137H74.2282C73.6049 34.7554 72.6764 35.8274 71.5243 36.6428C70.0756 37.5948 68.3389 38.0625 66.585 37.9673C65.132 38.0045 63.6876 37.7438 62.3507 37.1933C61.2459 36.7173 60.2744 35.9971 59.5178 35.0906C58.787 34.1966 58.254 33.1701 57.9574 32.0692C57.6436 30.9102 57.4845 29.7182 57.4888 28.522V13.3484H63.7263V25.5129C63.7263 26.1793 63.7607 26.9243 63.8295 27.7397C63.894 28.5303 64.0745 29.3043 64.3754 30.041C64.6591 30.7447 65.1234 31.3655 65.7252 31.8415C66.4689 32.3672 67.3803 32.6238 68.3002 32.5658C69.203 32.5948 70.1014 32.421 70.9268 32.065C71.6146 31.7505 72.2207 31.2869 72.6936 30.7157C73.1664 30.1404 73.5103 29.474 73.7081 28.7621C73.9187 28.0129 74.0219 27.2348 74.0176 26.4608V13.3484H80.2551V37.3671H80.2637ZM83.333 13.3401H89.5705V37.3671H83.3287L83.333 13.3401ZM112.952 33.7662H112.848C112.014 35.1734 110.742 36.2951 109.212 36.9698C107.66 37.6444 105.975 37.9838 104.272 37.9714C102.497 38.0045 100.73 37.6693 99.1009 36.9946C97.6307 36.3696 96.311 35.459 95.2277 34.3166C94.1358 33.1577 93.3062 31.796 92.786 30.3142C92.2229 28.7207 91.9392 27.0444 91.9564 25.3598C91.9392 23.6711 92.2358 21.9906 92.8333 20.4054C93.3835 18.9319 94.2218 17.5743 95.3051 16.403C96.3712 15.2606 97.6737 14.35 99.1267 13.725C100.661 13.0628 102.329 12.7316 104.014 12.7482C105.068 12.7316 106.117 12.8517 107.135 13.1C107.965 13.307 108.769 13.6091 109.525 14.0023C110.157 14.3293 110.751 14.7225 111.292 15.1778C111.731 15.5462 112.131 15.9601 112.487 16.403H112.642V5.3559L118.88 0V37.3754H112.952V33.7662ZM98.1853 25.3515C98.1853 26.2745 98.3486 27.1892 98.6796 28.0543C98.9978 28.9069 99.4964 29.6892 100.137 30.3556C102.923 33.2157 107.587 33.3647 110.557 30.6826C110.673 30.575 110.789 30.4674 110.897 30.3556C111.537 29.6892 112.032 28.9069 112.354 28.0543C113.012 26.3076 113.012 24.3954 112.354 22.6487C112.032 21.7961 111.533 21.0138 110.888 20.3516C108.103 17.4915 103.438 17.3425 100.468 20.0246C100.352 20.1322 100.236 20.2398 100.128 20.3516C99.4878 21.018 98.9934 21.8002 98.671 22.6529C98.3443 23.5179 98.1767 24.4327 98.181 25.3557L98.1853 25.3515ZM144.53 37.363H138.598V33.5137H138.495C137.872 34.7554 136.943 35.8274 135.791 36.6428C134.342 37.5948 132.606 38.0625 130.852 37.9673C129.399 38.0045 127.954 37.7438 126.617 37.1933C125.513 36.7173 124.541 35.9971 123.784 35.0906C123.054 34.1966 122.521 33.1701 122.224 32.0692C121.91 30.9102 121.751 29.7182 121.755 28.522V13.3484H127.993V25.5129C127.993 26.1793 128.027 26.9243 128.096 27.7397C128.161 28.5303 128.341 29.3043 128.642 30.041C128.926 30.7405 129.39 31.3614 129.992 31.8415C130.736 32.3672 131.647 32.6238 132.567 32.5658C133.47 32.5948 134.368 32.421 135.193 32.065C135.881 31.7505 136.487 31.2869 136.96 30.7157C137.433 30.1404 137.777 29.474 137.975 28.7621C138.185 28.0129 138.289 27.2348 138.284 26.4608V13.3484H144.522L144.53 37.363ZM164.872 20.5461C164.202 19.8549 163.432 19.2672 162.585 18.7953C161.846 18.3731 161.003 18.1455 160.144 18.1372C158.106 18.0958 156.146 18.8988 154.761 20.3392C154.121 21.0055 153.627 21.7878 153.304 22.6405C152.646 24.3871 152.646 26.2994 153.304 28.046C153.622 28.8987 154.121 29.6809 154.761 30.3473C156.146 31.7877 158.106 32.5907 160.144 32.5493C161.076 32.5576 162.001 32.3589 162.847 31.974C163.686 31.5849 164.416 31.0096 164.98 30.2976L169.137 34.6022C168.496 35.2148 167.77 35.7363 166.979 36.1544C166.192 36.5766 165.362 36.9284 164.507 37.2057C163.729 37.4582 162.929 37.6527 162.117 37.781C161.463 37.8886 160.801 37.9466 160.139 37.9548C158.329 37.9673 156.533 37.661 154.835 37.0525C153.235 36.4896 151.765 35.6204 150.519 34.4988C149.289 33.373 148.305 32.0195 147.634 30.5212C146.908 28.8862 146.542 27.1189 146.568 25.3391C146.542 23.5593 146.908 21.7961 147.634 20.157C148.309 18.6587 149.289 17.3053 150.519 16.1794C151.765 15.0578 153.231 14.1886 154.835 13.6257C156.533 13.0214 158.329 12.7151 160.139 12.7234C161.786 12.7316 163.415 13.0296 164.95 13.6008C166.57 14.1927 168.019 15.1447 169.184 16.3781L164.872 20.5461ZM170.62 18.4435V13.3442H175.765V5.22345H182.003V13.3442H188.864V18.4518H182.003V28.969C181.951 29.9665 182.192 30.9558 182.703 31.8208C183.378 32.6114 184.432 33.0087 185.485 32.8721C186.095 32.868 186.706 32.81 187.303 32.6983C187.862 32.6196 188.395 32.421 188.864 32.123V37.1767C188.098 37.5078 187.282 37.7189 186.448 37.8017C185.614 37.9093 184.771 37.9673 183.924 37.9755C182.544 38.0128 181.165 37.8348 179.845 37.4499C178.873 37.156 178.005 36.5972 177.347 35.8481C176.711 35.0658 176.281 34.1469 176.101 33.1701C175.86 31.9491 175.748 30.7074 175.761 29.4657V18.4518L170.62 18.4435Z" fill="white"></path><path d="M86.1111 3.66016C87.8488 3.66016 89.2588 5.07019 89.2588 6.80788C89.2588 8.54557 87.8488 9.95561 86.1111 9.95561C84.3734 9.95561 82.9634 8.54557 82.9634 6.80788C82.9634 5.07019 84.3734 3.66016 86.1111 3.66016Z" fill="#5AA1D8"></path></svg>